<svg width="28" height="28" viewBox="0 0 28 28" fill="none" xmlns="http://www.w3.org/2000/svg">
<path d="M6.2675 27.9994H0.4625V9.30562H6.2675V27.9994ZM3.36188 6.75562C1.50563 6.75562 0 5.21812 0 3.36187C1.32862e-08 2.47025 0.354197 1.61514 0.98467 0.98467C1.61514 0.354196 2.47025 0 3.36188 0C4.2535 0 5.10861 0.354196 5.73908 0.98467C6.36955 1.61514 6.72375 2.47025 6.72375 3.36187C6.72375 5.21812 5.2175 6.75562 3.36188 6.75562ZM27.9937 27.9994H22.2013V18.8994C22.2013 16.7306 22.1575 13.9494 19.1831 13.9494C16.165 13.9494 15.7025 16.3056 15.7025 18.7431V27.9994H9.90375V9.30562H15.4712V11.8556H15.5525C16.3275 10.3869 18.2206 8.83687 21.045 8.83687C26.92 8.83687 28 12.7056 28 17.7306V27.9994H27.9937Z" fill="#D9D9D9"/>
</svg>
