<svg width="114" height="28" viewBox="0 0 114 28" fill="none" xmlns="http://www.w3.org/2000/svg">
<path d="M0.624 27V3.448H5.872V27H0.624ZM14.8 27L7.952 16.952H13.712L20.88 27H14.8ZM4.464 19.512V15.384H10.224C10.992 15.384 11.6533 15.2347 12.208 14.936C12.784 14.616 13.2213 14.1787 13.52 13.624C13.84 13.048 14 12.3867 14 11.64C14 10.8933 13.84 10.2427 13.52 9.688C13.2213 9.112 12.784 8.67467 12.208 8.376C11.6533 8.056 10.992 7.896 10.224 7.896H4.464V3.448H9.808C11.7493 3.448 13.4347 3.74667 14.864 4.344C16.2933 4.92 17.392 5.784 18.16 6.936C18.928 8.088 19.312 9.53867 19.312 11.288V11.8C19.312 13.528 18.9173 14.968 18.128 16.12C17.36 17.2507 16.2613 18.104 14.832 18.68C13.424 19.2347 11.7493 19.512 9.808 19.512H4.464ZM29.5685 27.544C27.5418 27.544 25.9845 26.8933 24.8965 25.592C23.8085 24.2693 23.2645 22.2853 23.2645 19.64V9.464H28.3845V19.896C28.3845 20.8347 28.6512 21.5813 29.1845 22.136C29.7178 22.6907 30.4325 22.968 31.3285 22.968C32.2458 22.968 32.9925 22.68 33.5685 22.104C34.1445 21.528 34.4325 20.7493 34.4325 19.768V9.464H39.5525V27H35.4885V19.608H35.8405C35.8405 21.3787 35.6058 22.8613 35.1365 24.056C34.6885 25.2293 34.0165 26.104 33.1205 26.68C32.2245 27.256 31.1152 27.544 29.7925 27.544H29.5685ZM51.5055 27.576C50.2682 27.576 49.1375 27.352 48.1135 26.904C47.1108 26.456 46.2362 25.8373 45.4895 25.048C44.7428 24.2373 44.1668 23.288 43.7615 22.2C43.3775 21.112 43.1855 19.9387 43.1855 18.68V17.944C43.1855 16.6853 43.3668 15.512 43.7295 14.424C44.1135 13.336 44.6575 12.3867 45.3615 11.576C46.0868 10.744 46.9508 10.104 47.9535 9.656C48.9562 9.18667 50.0762 8.952 51.3135 8.952C52.7215 8.952 53.9375 9.26133 54.9615 9.88C55.9855 10.4773 56.7855 11.3733 57.3615 12.568C57.9375 13.7413 58.2575 15.192 58.3215 16.92L56.9775 15.672V3.64H62.1295V27H58.0655V19.736H58.7695C58.7055 21.4 58.3535 22.8187 57.7135 23.992C57.0948 25.1653 56.2522 26.0613 55.1855 26.68C54.1188 27.2773 52.8922 27.576 51.5055 27.576ZM52.7855 23.288C53.5748 23.288 54.2895 23.1173 54.9295 22.776C55.5908 22.4133 56.1135 21.8907 56.4975 21.208C56.9028 20.5253 57.1055 19.704 57.1055 18.744V17.56C57.1055 16.6213 56.9028 15.832 56.4975 15.192C56.0922 14.552 55.5588 14.0613 54.8975 13.72C54.2362 13.3787 53.5215 13.208 52.7535 13.208C51.9002 13.208 51.1322 13.432 50.4495 13.88C49.7882 14.3067 49.2655 14.904 48.8815 15.672C48.4975 16.4187 48.3055 17.2933 48.3055 18.296C48.3055 19.32 48.4975 20.2053 48.8815 20.952C49.2655 21.6987 49.7988 22.2747 50.4815 22.68C51.1642 23.0853 51.9322 23.288 52.7855 23.288ZM74.0055 27.576C72.7682 27.576 71.6375 27.352 70.6135 26.904C69.6108 26.456 68.7362 25.8373 67.9895 25.048C67.2428 24.2373 66.6668 23.288 66.2615 22.2C65.8775 21.112 65.6855 19.9387 65.6855 18.68V17.944C65.6855 16.6853 65.8668 15.512 66.2295 14.424C66.6135 13.336 67.1575 12.3867 67.8615 11.576C68.5868 10.744 69.4508 10.104 70.4535 9.656C71.4562 9.18667 72.5762 8.952 73.8135 8.952C75.2215 8.952 76.4375 9.26133 77.4615 9.88C78.4855 10.4773 79.2855 11.3733 79.8615 12.568C80.4375 13.7413 80.7575 15.192 80.8215 16.92L79.4775 15.672V3.64H84.6295V27H80.5655V19.736H81.2695C81.2055 21.4 80.8535 22.8187 80.2135 23.992C79.5948 25.1653 78.7522 26.0613 77.6855 26.68C76.6188 27.2773 75.3922 27.576 74.0055 27.576ZM75.2855 23.288C76.0748 23.288 76.7895 23.1173 77.4295 22.776C78.0908 22.4133 78.6135 21.8907 78.9975 21.208C79.4028 20.5253 79.6055 19.704 79.6055 18.744V17.56C79.6055 16.6213 79.4028 15.832 78.9975 15.192C78.5922 14.552 78.0588 14.0613 77.3975 13.72C76.7362 13.3787 76.0215 13.208 75.2535 13.208C74.4002 13.208 73.6322 13.432 72.9495 13.88C72.2882 14.3067 71.7655 14.904 71.3815 15.672C70.9975 16.4187 70.8055 17.2933 70.8055 18.296C70.8055 19.32 70.9975 20.2053 71.3815 20.952C71.7655 21.6987 72.2988 22.2747 72.9815 22.68C73.6642 23.0853 74.4322 23.288 75.2855 23.288ZM99.8655 27V21.816H99.0015V16.184C99.0015 15.288 98.7882 14.616 98.3615 14.168C97.9348 13.72 97.2522 13.496 96.3135 13.496C95.8442 13.496 95.2255 13.5067 94.4575 13.528C93.6895 13.5493 92.9002 13.5813 92.0895 13.624C91.2788 13.6667 90.5428 13.7093 89.8815 13.752V9.432C90.3722 9.38933 90.9482 9.34667 91.6095 9.304C92.2708 9.26133 92.9535 9.22933 93.6575 9.208C94.3615 9.18667 95.0228 9.176 95.6415 9.176C97.4335 9.176 98.9375 9.432 100.154 9.944C101.391 10.456 102.33 11.2347 102.97 12.28C103.61 13.304 103.93 14.6267 103.93 16.248V27H99.8655ZM94.2655 27.448C93.0068 27.448 91.8975 27.224 90.9375 26.776C89.9988 26.328 89.2628 25.688 88.7295 24.856C88.1962 24.0027 87.9295 22.9893 87.9295 21.816C87.9295 20.536 88.2602 19.4907 88.9215 18.68C89.5828 17.848 90.5108 17.24 91.7055 16.856C92.9002 16.4507 94.2762 16.248 95.8335 16.248H99.5775V19.096H95.8015C94.9055 19.096 94.2122 19.32 93.7215 19.768C93.2522 20.1947 93.0175 20.7813 93.0175 21.528C93.0175 22.232 93.2522 22.808 93.7215 23.256C94.2122 23.6827 94.9055 23.896 95.8015 23.896C96.3775 23.896 96.8895 23.8 97.3375 23.608C97.8068 23.3947 98.1908 23.0427 98.4895 22.552C98.7882 22.0613 98.9588 21.3787 99.0015 20.504L100.218 21.784C100.111 23 99.8122 24.024 99.3215 24.856C98.8522 25.688 98.1908 26.328 97.3375 26.776C96.5055 27.224 95.4815 27.448 94.2655 27.448ZM93.6895 7.416L96.5695 0.727999H101.818L98.1695 7.416H93.6895Z" fill="white"/>
<path d="M107.474 27V21.272H113.106V27H107.474Z" fill="#6FFF75"/>
</svg>
