<svg width="41" height="23" viewBox="0 0 41 23" fill="none" xmlns="http://www.w3.org/2000/svg">
<path d="M11.5633 0C5.17708 0 0 5.08569 0 11.3586C0 17.6316 5.17747 22.7173 11.5633 22.7173C17.9491 22.7173 23.1266 17.6319 23.1266 11.3586C23.1266 5.08531 17.9497 0 11.5633 0ZM30.0293 0.665375C26.8361 0.665375 24.248 5.45406 24.248 11.3588C24.248 17.2636 26.8365 22.0526 30.0297 22.0526C33.2229 22.0526 35.8114 17.2639 35.8114 11.3588H35.8109C35.8109 5.45237 33.2228 0.665375 30.0294 0.665375H30.0293ZM38.9664 1.77919C37.8436 1.77919 36.9334 6.06844 36.9334 11.3588C36.9334 16.6492 37.8431 20.9384 38.9664 20.9384C40.0897 20.9384 41 16.6481 41 11.3586C41 6.06806 40.0894 1.77919 38.9665 1.77919H38.9664Z" fill="#D9D9D9"/>
</svg>
