<svg width="150" height="87" viewBox="0 0 150 87" fill="none" xmlns="http://www.w3.org/2000/svg">
<rect width="150" height="87" rx="8" fill="#101011"/>
<path d="M72.3868 5.8112C74.2722 4.73204 76.7279 4.72716 78.6116 5.8112C88.0885 11.1662 97.5684 16.5127 107.044 21.8709C108.826 22.8748 110.018 24.8582 110 26.9117V59.1291C110.013 61.2677 108.703 63.2985 106.823 64.2796C97.3772 69.605 87.9363 74.937 78.4922 80.2624C76.5678 81.3627 74.0628 81.2779 72.1986 80.0874C69.3668 78.4458 66.5301 76.8123 63.698 75.1723C63.1192 74.8273 62.4669 74.5527 62.0582 73.9916C62.4195 73.5047 63.0654 73.444 63.5902 73.2314C64.7722 72.8555 65.8579 72.2522 66.9439 71.6667C67.2185 71.4788 67.5537 71.5508 67.8169 71.719C70.2385 73.1074 72.6387 74.5362 75.0683 75.9113C75.5867 76.2106 76.1115 75.8133 76.5545 75.5663C85.8237 70.3275 95.1043 65.1085 104.372 59.8682C104.715 59.703 104.905 59.3385 104.877 58.9623C104.884 48.3345 104.879 37.7047 104.88 27.0769C104.92 26.6501 104.673 26.2577 104.287 26.083C94.8739 20.782 85.4657 15.4728 76.0544 10.1704C75.8913 10.0583 75.6981 9.99814 75.5003 9.99785C75.3024 9.99756 75.1091 10.0571 74.9457 10.1688C65.5343 15.4728 56.1278 20.7869 46.7164 26.0876C46.3319 26.2626 46.0738 26.6485 46.1196 27.0769C46.1212 37.7047 46.1196 48.3345 46.1196 58.9639C46.1033 59.1475 46.1436 59.3316 46.2351 59.4915C46.3266 59.6514 46.4649 59.7795 46.6314 59.8584C49.1429 61.2826 51.6576 62.6967 54.1707 64.116C55.5865 64.8781 57.3248 65.3309 58.8846 64.747C60.2611 64.2533 61.226 62.8487 61.1998 61.3871C61.2128 50.8213 61.1933 40.2538 61.2095 29.6896C61.1751 29.2206 61.6201 28.8331 62.0761 28.8772C63.2828 28.8691 64.4912 28.861 65.6979 28.8805C66.2016 28.8691 66.5482 29.3742 66.4859 29.8467C66.481 40.4794 66.4989 51.1124 66.4778 61.7451C66.481 64.5788 65.3168 67.6623 62.6957 69.0488C59.4666 70.7216 55.4754 70.3668 52.2853 68.7628C49.5236 67.3844 46.8881 65.7577 44.1755 64.281C42.2904 63.3052 40.987 61.2663 41.0002 59.1294V26.9117C40.9805 24.8157 42.2199 22.7962 44.0576 21.807C53.5018 16.4772 62.9443 11.1434 72.3868 5.8112Z" fill="#8CC84B"/>
<path d="M80.6256 28.1285C84.7446 27.8633 89.1541 27.9714 92.8607 30.0006C95.7304 31.5555 97.3214 34.819 97.3721 38.0072C97.2919 38.4373 96.8424 38.6745 96.4318 38.645C95.2367 38.6434 94.0414 38.6612 92.8463 38.6369C92.3394 38.6564 92.0447 38.189 91.9811 37.7408C91.6377 36.2153 90.8058 34.7045 89.37 33.9687C87.1659 32.8652 84.6103 32.9207 82.2068 32.9437C80.4523 33.0369 78.5656 33.1888 77.0791 34.2206C75.9379 35.0021 75.5913 36.5798 75.9986 37.8505C76.3826 38.7628 77.4358 39.0572 78.2975 39.3285C83.2614 40.6268 88.5215 40.4976 93.3906 42.2061C95.4065 42.9026 97.3786 44.2567 98.0686 46.3673C98.9712 49.1962 98.5755 52.5775 96.5629 54.8485C94.9307 56.7173 92.5536 57.7345 90.1827 58.2869C87.0286 58.9902 83.7553 59.0081 80.5522 58.6959C77.5403 58.3525 74.406 57.5612 72.0808 55.509C70.0925 53.7826 69.1214 51.0927 69.2178 48.4964C69.2409 48.058 69.6774 47.7523 70.0974 47.7883C71.3009 47.7785 72.5044 47.7753 73.7078 47.7899C74.1885 47.7555 74.5449 48.1709 74.5695 48.624C74.7916 50.0774 75.3378 51.6029 76.6052 52.4646C79.0511 54.0426 82.1202 53.9345 84.9209 53.9787C87.2412 53.8757 89.8458 53.8446 91.7393 52.311C92.7383 51.4363 93.0343 49.9729 92.7643 48.7139C92.4718 47.651 91.3599 47.1557 90.405 46.8318C85.5047 45.2817 80.1858 45.8441 75.3329 44.0912C73.3628 43.395 71.4577 42.0786 70.7008 40.0546C69.6446 37.19 70.1286 33.6467 72.3522 31.4524C74.5202 29.2696 77.65 28.4291 80.6256 28.1282V28.1285Z" fill="#8CC84B"/>
</svg>
