<svg width="150" height="87" viewBox="0 0 150 87" fill="none" xmlns="http://www.w3.org/2000/svg">
<rect width="150" height="87" rx="8" fill="#101011"/>
<path d="M112.529 40.5247L78.4735 6.47096C76.5135 4.50968 73.3325 4.50968 71.37 6.47096L64.2982 13.5428L73.2691 22.5137C75.3538 21.8093 77.7444 22.2818 79.4062 23.9436C81.0759 25.616 81.5451 28.027 80.8236 30.1184L89.4691 38.7642C91.5608 38.0437 93.9742 38.5098 95.6448 40.1832C97.9797 42.5171 97.9797 46.2998 95.6448 48.6352C93.3094 50.971 89.5267 50.971 87.19 48.6352C85.4338 46.8772 84.9999 44.298 85.889 42.1344L77.8264 34.0717L77.8254 55.2893C78.4099 55.5783 78.9437 55.96 79.4062 56.4197C81.741 58.7536 81.741 62.5366 79.4062 64.8739C77.0707 67.2084 73.2862 67.2084 70.9541 64.8739C68.6193 62.5366 68.6193 58.7539 70.9541 56.42C71.5136 55.8602 72.1786 55.4169 72.9105 55.1156V33.7003C72.1775 33.4011 71.5122 32.9575 70.9541 32.396C69.1851 30.6294 68.7598 28.0337 69.6662 25.8616L60.8229 17.0174L37.4716 40.3672C35.5095 42.3303 35.5095 45.5116 37.4716 47.4731L71.5279 81.5275C73.4885 83.4891 76.6689 83.4891 78.632 81.5275L112.529 47.6313C114.49 45.6691 114.49 42.486 112.529 40.5247" fill="#DE4C36"/>
</svg>
