<svg width="150" height="87" viewBox="0 0 150 87" fill="none" xmlns="http://www.w3.org/2000/svg">
<rect width="150" height="87" rx="8" fill="#101011"/>
<path d="M96.9018 56.1462C94.7664 56.1462 93.0295 54.4078 93.0295 52.2725C93.0295 50.1371 94.7664 48.4002 96.9018 48.4002C99.0374 48.4002 100.774 50.1368 100.774 52.2725C100.774 54.4078 99.0374 56.1462 96.9018 56.1462ZM54.0982 56.1462C51.9629 56.1462 50.226 54.4078 50.226 52.2725C50.226 50.1371 51.9626 48.4002 54.0982 48.4002C56.2336 48.4002 57.9705 50.1368 57.9705 52.2725C57.9705 54.4078 56.2339 56.1462 54.0982 56.1462ZM98.2907 32.8189L106.03 19.4144C106.243 19.0445 106.301 18.6051 106.19 18.1928C106.08 17.7805 105.81 17.4288 105.441 17.2149C105.071 17.002 104.632 16.9445 104.219 17.0549C103.807 17.1654 103.455 17.4349 103.241 17.8043L95.4051 31.3782C89.412 28.6436 82.6818 27.12 75.5 27.12C68.3182 27.12 61.588 28.6436 55.5953 31.3782L47.7586 17.8043C47.5447 17.4349 47.193 17.1654 46.7807 17.0549C46.3684 16.9445 45.9291 17.002 45.5591 17.2149C45.1894 17.4286 44.9197 17.7803 44.8091 18.1927C44.6986 18.6051 44.7564 19.0446 44.9697 19.4144L52.7093 32.8189C39.4193 40.0471 30.3297 53.5016 29 69.3972H122C120.669 53.5019 111.58 40.0471 98.2907 32.8186" fill="#3DDB85"/>
</svg>
