<svg width="150" height="87" viewBox="0 0 150 87" fill="none" xmlns="http://www.w3.org/2000/svg">
<rect width="150" height="87" rx="8" fill="#101011"/>
<path d="M91.5364 63.4119H91.2765V63.2665H91.9763V63.4119H91.7181V64.1375H91.5364V63.4119ZM92.9322 63.4498H92.9282L92.6706 64.1376H92.5527L92.2968 63.4498H92.2937V64.1376H92.1225V63.2666H92.3744L92.6117 63.8834L92.8482 63.2666H93.0992V64.1376H92.9321V63.4498H92.9322ZM68.2659 45.6013C68.2659 45.6013 66.4573 46.6531 69.553 47.009C73.3034 47.4368 75.2201 47.3754 79.3531 46.5932C79.3531 46.5932 80.4397 47.2745 81.9572 47.8647C72.6922 51.8355 60.9887 47.6347 68.2659 45.6013ZM67.1337 40.4196C67.1337 40.4196 65.1052 41.9212 68.2032 42.2416C72.2095 42.655 75.3733 42.6888 80.848 41.6346C80.848 41.6346 81.6052 42.4022 82.7959 42.8221C71.594 46.0976 59.1171 43.0804 67.1337 40.4196Z" fill="#5382A1"/>
<path d="M76.6781 31.6298C78.961 34.2582 76.0783 36.6233 76.0783 36.6233C76.0783 36.6233 81.8749 33.6309 79.2128 29.8837C76.7264 26.3893 74.8197 24.653 85.1418 18.6665C85.1418 18.6665 68.9395 22.7131 76.6781 31.6298Z" fill="#F8981D"/>
<path d="M88.9316 49.4337C88.9316 49.4337 90.27 50.5365 87.4576 51.3897C82.1097 53.0097 65.1992 53.4989 60.5016 51.4542C58.8129 50.7196 61.9797 49.7001 62.9758 49.4862C64.0147 49.2609 64.6084 49.3029 64.6084 49.3029C62.7304 47.9799 52.4698 51.9006 59.3965 53.0234C78.2867 56.0868 93.8315 51.6439 88.9316 49.4337ZM69.1356 35.0507C69.1356 35.0507 60.5339 37.0937 66.0895 37.8356C68.4353 38.1497 73.1115 38.0787 77.4673 37.7137C81.0271 37.4134 84.6016 36.775 84.6016 36.775C84.6016 36.775 83.3463 37.3125 82.4382 37.9326C73.7033 40.2299 56.829 39.1612 61.6869 36.8113C65.7952 34.8254 69.1356 35.0507 69.1356 35.0507ZM84.5661 43.6758C93.4456 39.0617 89.3401 34.6275 86.4745 35.2249C85.7721 35.3711 85.4589 35.4978 85.4589 35.4978C85.4589 35.4978 85.7197 35.0893 86.2177 34.9125C91.8867 32.9195 96.2466 40.7908 84.3876 43.9083C84.3876 43.9084 84.525 43.7856 84.5661 43.6758Z" fill="#5382A1"/>
<path d="M79.2117 9C79.2117 9 84.1292 13.9192 74.5475 21.4837C66.864 27.5516 72.7954 31.0114 74.5443 34.9643C70.0593 30.9178 66.7679 27.3555 68.9761 24.0402C72.2171 19.1735 81.1958 16.8139 79.2117 9Z" fill="#F8981D"/>
<path d="M70.008 56.1791C78.5312 56.7247 91.6195 55.8764 91.9295 51.8434C91.9295 51.8434 91.3336 53.3723 84.8856 54.5864C77.6108 55.9555 68.6385 55.7956 63.3169 54.9182C63.3171 54.9181 64.4063 55.8199 70.008 56.1791ZM68.6112 71.589C67.8072 72.2864 66.958 72.6779 66.1959 72.6779C65.1082 72.6779 64.5205 72.0257 64.5205 70.9795C64.5205 69.8479 65.1502 69.0205 67.6763 69.0205H68.6111V71.589H68.6112ZM70.8298 74.0922V66.3437C70.8298 64.3643 69.7009 63.0582 66.9789 63.0582C65.3898 63.0582 63.9979 63.4506 62.8665 63.951L63.1931 65.3226C64.0838 64.9957 65.2369 64.6913 66.3686 64.6913C67.9367 64.6913 68.6112 65.3226 68.6112 66.6278V67.6071H67.8286C64.0189 67.6071 62.3004 69.086 62.3004 71.3057C62.3004 73.2214 63.4329 74.3102 65.5652 74.3102C66.9359 74.3102 67.9591 73.7444 68.9156 72.9162L69.0892 74.0924H70.8298V74.0922ZM78.2341 74.0922H75.467L72.1368 63.2544H74.5533L76.6197 69.9132L77.079 71.9159C78.1244 69.0204 78.8638 66.0829 79.2336 63.2544H81.5842C80.9544 66.8233 79.8211 70.7405 78.2341 74.0922ZM88.8491 71.589C88.0435 72.2864 87.1928 72.6779 86.4307 72.6779C85.3449 72.6779 84.7557 72.0257 84.7557 70.9795C84.7557 69.8479 85.3869 69.0205 87.9128 69.0205H88.8491V71.589ZM91.0674 74.0922V66.3437C91.0674 64.3643 89.9357 63.0582 87.2169 63.0582C85.6267 63.0582 84.2342 63.4506 83.1034 63.951L83.4294 65.3226C84.3206 64.9957 85.4758 64.6913 86.6066 64.6913C88.1735 64.6913 88.8491 65.3226 88.8491 66.6278V67.6071H88.0652C84.2544 67.6071 82.5366 69.086 82.5366 71.3057C82.5366 73.2214 83.6682 74.3102 85.8002 74.3102C87.1716 74.3102 88.1944 73.7444 89.1526 72.9162L89.3268 74.0924H91.0674V74.0922ZM59.8677 75.9327C59.2353 76.8562 58.2137 77.5867 57.0954 78L56 76.711C56.8512 76.2742 57.5813 75.5688 57.9205 74.9117C58.2139 74.3273 58.3353 73.5742 58.3353 71.7731V59.4001H60.6924V71.6036C60.6923 74.0115 60.4998 74.9842 59.8677 75.9327Z" fill="#5382A1"/>
</svg>
