<svg width="150" height="87" viewBox="0 0 150 87" fill="none" xmlns="http://www.w3.org/2000/svg">
<rect width="150" height="87" rx="8" fill="#101011"/>
<path fill-rule="evenodd" clip-rule="evenodd" d="M44.9897 65.5209V60.0174C44.9897 59.2942 45.4418 58.7134 46.1905 58.7134H46.3977C47.1461 58.7134 47.5961 59.2949 47.5961 60.0174V71.6039C47.5961 74.4293 46.2003 76.6776 43.7677 78.1098C42.6534 78.77 41.3815 79.1168 40.0863 79.1138H39.5693C36.7432 79.1138 34.498 77.7169 33.0635 75.286C32.4023 74.1719 32.0555 72.8994 32.0598 71.6039V71.0876C32.0598 68.2612 33.4563 66.0143 35.8868 64.5794C37.0009 63.9179 38.2736 63.5709 39.5693 63.5754H40.0863C41.9988 63.5754 43.6214 64.3167 44.9897 65.5209ZM34.6659 71.3453C34.6659 73.3863 35.6551 74.9208 37.4435 75.8996C38.1667 76.2951 38.9517 76.5077 39.7768 76.5077C41.7802 76.5077 43.2662 75.5625 44.2911 73.8649C44.7677 73.0752 44.9897 72.2111 44.9897 71.2925C44.9897 69.5232 44.1522 68.1425 42.7263 67.1169C41.8619 66.4953 40.8888 66.1835 39.8276 66.1835C37.644 66.1835 36.0725 67.2868 35.1294 69.2464C34.8112 69.909 34.6659 70.6124 34.6659 71.3453ZM56.6381 63.5754H56.9994C60.0192 63.5754 62.3158 65.0402 63.7713 67.6763C64.3532 68.7308 64.6646 69.8818 64.6646 71.0876V71.6039C64.6646 74.4293 63.2714 76.6806 60.8352 78.1101C59.7074 78.7717 58.4615 79.1138 57.1544 79.1138H56.6381C53.812 79.1138 51.5662 77.7169 50.1323 75.286C49.4708 74.172 49.1236 72.8995 49.1276 71.6039V71.0876C49.1276 68.2609 50.5299 66.0214 52.9543 64.5801C54.0815 63.9104 55.3283 63.5754 56.6381 63.5754ZM51.734 71.3453C51.734 73.3264 52.7061 74.7839 54.3795 75.8087C55.1652 76.2897 56.0306 76.5077 56.9486 76.5077C58.9062 76.5077 60.3532 75.5151 61.3602 73.8629C61.8406 73.0752 62.0578 72.2097 62.0578 71.2925C62.0578 69.4502 61.1705 68.0429 59.6536 67.0231C58.8224 66.4637 57.8971 66.1835 56.8961 66.1835C54.7125 66.1835 53.141 67.2868 52.1982 69.2464C51.8793 69.909 51.734 70.6124 51.734 71.3453ZM75.4997 66.3917C75.1062 66.2074 74.3696 66.1462 73.9444 66.13C71.7668 66.048 70.1913 67.2743 69.267 69.1953C68.9478 69.8579 68.8022 70.5592 68.8022 71.2925C68.8022 73.5249 69.9744 75.0879 71.967 76.0408C72.6948 76.3886 73.6346 76.4546 74.4301 76.4546C75.1297 76.4546 76.1186 76.026 76.7395 75.731L76.8472 75.6799H77.3292L77.3823 75.6907C77.975 75.8141 78.4223 76.1898 78.4223 76.8276V77.0856C78.4223 78.6725 75.5223 79.0358 74.4156 79.1131C70.5105 79.3832 67.5899 77.2386 66.4766 73.5138C66.2832 72.867 66.1961 72.2245 66.1961 71.5505V71.0348C66.1961 68.2084 67.5987 65.9696 70.0228 64.5297C71.1499 63.8603 72.3965 63.5239 73.7059 63.5239H74.2226C75.6117 63.5239 76.8912 63.9185 78.0382 64.7019L78.1324 64.7671L78.1919 64.8653C78.3157 65.0705 78.4223 65.308 78.4223 65.5522V65.8102C78.4223 66.4755 77.9245 66.8334 77.3238 66.9491L77.274 66.9578H77.12C76.7311 66.9578 75.8468 66.5552 75.4997 66.3917ZM83.9537 68.1566C84.9662 67.1428 85.982 66.1311 87.0095 65.1341C87.2958 64.8559 88.3799 63.6787 88.8067 63.6787H89.2736L89.3267 63.6898C89.9214 63.8132 90.3667 64.1896 90.3667 64.8287V65.0863C90.3667 65.5222 89.8561 66.0288 89.5746 66.3272C88.9759 66.9619 88.3456 67.5757 87.7327 68.1973L84.5837 71.3941C85.9396 72.7529 87.2941 74.1128 88.6389 75.4821C89.0118 75.8601 89.382 76.2409 89.7492 76.6244C89.8787 76.7606 90.0697 76.9302 90.1784 77.1189C90.2951 77.2958 90.3667 77.4952 90.3667 77.7082V77.9772L90.3516 78.0395C90.2053 78.6342 89.8279 79.1138 89.169 79.1138H88.9614C88.5302 79.1138 88.0432 78.6261 87.7479 78.3472C87.139 77.7734 86.5514 77.17 85.9547 76.5837L83.9537 74.6194V77.7589C83.9537 78.4821 83.501 79.0633 82.7533 79.0633H82.5481C81.7994 79.0633 81.3473 78.4821 81.3473 77.7589V60.0679C81.3473 59.3447 81.7997 58.7662 82.5481 58.7662H82.7533C83.501 58.7662 83.9537 59.3447 83.9537 60.0679V68.1566ZM116.438 63.6787H116.697C117.479 63.6787 118.001 64.2054 118.001 64.9827C118.001 66.0618 116.969 66.3379 116.077 66.3379C114.906 66.3379 113.788 67.0466 112.981 67.8414C111.975 68.8334 111.535 70.1038 111.535 71.5003V77.8101C111.535 78.5332 111.083 79.1138 110.334 79.1138H110.128C109.379 79.1138 108.928 78.5336 108.928 77.8101V71.1381C108.928 68.576 110.175 66.4846 112.255 65.0177C113.496 64.1415 114.918 63.679 116.438 63.679V63.6787ZM97.9136 76.1831C98.8621 76.5144 99.9435 76.467 100.917 76.2975C101.414 76.0859 102.687 75.5306 103.155 75.612L103.228 75.6244L103.296 75.6574C103.582 75.796 103.854 75.9921 104 76.283C104.341 76.9648 104.178 77.6503 103.508 78.0375L103.285 78.1663C100.812 79.5931 98.1827 79.3953 95.7182 78.0627C94.5399 77.4256 93.6385 76.4801 92.9735 75.3274L92.8181 75.058C91.2308 72.3093 91.4451 69.4179 93.2352 66.8041C93.8531 65.9007 94.6607 65.2027 95.6048 64.6568L95.9621 64.4506C98.2903 63.1065 100.786 63.1987 103.177 64.3783C104.463 65.0127 105.505 65.9582 106.222 67.2017L106.351 67.4257C106.873 68.3292 106.197 69.1162 105.5 69.6544C104.691 70.2787 103.874 71.0301 103.098 71.6995C101.369 73.1926 99.6418 74.689 97.9136 76.1831ZM95.6751 74.611C97.6092 72.9527 99.5439 71.2928 101.473 69.6275C102.132 69.059 102.855 68.4691 103.509 67.8714C102.984 67.2101 102.108 66.7335 101.363 66.4492C99.8594 65.8764 98.3771 66.0688 96.9984 66.8647C95.1938 67.9067 94.4252 69.5659 94.4925 71.6308C94.5194 72.4442 94.738 73.2279 95.1696 73.9198C95.3216 74.1636 95.4915 74.3927 95.6751 74.611ZM81.6093 22.3823H89.3005V30.2447H93.1891C94.9853 30.2447 96.8322 29.9248 98.5328 29.3486C99.3687 29.0651 100.306 28.6709 101.131 28.1747C100.045 26.7573 99.4908 24.9676 99.328 23.2034C99.106 20.8035 99.5903 17.68 101.214 15.8018L102.023 14.8667L102.986 15.6414C105.412 17.5899 107.452 20.313 107.811 23.4173C110.732 22.5582 114.161 22.7614 116.735 24.2471L117.791 24.8566L117.236 25.9417C115.058 30.1905 110.507 31.507 106.056 31.2739C99.3976 47.8594 84.9003 55.7114 67.3225 55.7114C58.2409 55.7114 49.9093 52.3165 45.1646 44.2594L45.0869 44.1282L44.3957 42.7215C42.7919 39.175 42.2591 35.2897 42.6204 31.4075L42.729 30.2447H49.3062V22.3823H56.997V14.6912H72.3797V7H81.6093V22.3823Z" fill="#364548"/>
<path fill-rule="evenodd" clip-rule="evenodd" d="M106.528 25.2914C107.043 21.2834 104.044 18.1354 102.184 16.6407C100.04 19.1189 99.7073 25.614 103.07 28.3486C101.193 30.0156 97.2387 31.5265 93.1893 31.5265H43.8978C43.5042 35.7535 44.2462 39.6462 45.9411 42.9778L46.5018 44.0037C46.8569 44.6059 47.2448 45.188 47.664 45.7474C49.6905 45.8776 51.559 45.9223 53.2684 45.8846H53.269C56.6282 45.8106 59.3692 45.4137 61.4466 44.6939C61.5934 44.6482 61.7523 44.6615 61.8896 44.7308C62.0268 44.8002 62.1318 44.9202 62.1821 45.0655C62.2325 45.2108 62.2244 45.37 62.1595 45.5095C62.0946 45.6489 61.978 45.7576 61.8344 45.8126C61.5579 45.9088 61.27 45.9983 60.9726 46.0834H60.9716C59.3359 46.5506 57.5818 46.8648 55.3188 47.0044C55.4533 47.0067 55.1789 47.0245 55.1782 47.0245C55.1012 47.0296 55.0043 47.0407 54.9269 47.0447C54.0363 47.0948 53.0749 47.1053 52.0921 47.1053C51.0171 47.1053 49.9586 47.0851 48.7749 47.0245L48.7447 47.0447C52.8516 51.6609 59.2734 54.4295 67.3231 54.4295C84.3589 54.4295 98.8089 46.8776 105.208 29.9234C109.747 30.3893 114.11 29.2315 116.095 25.3574C112.934 23.5333 108.868 24.1149 106.528 25.2914Z" fill="#22A0C8"/>
<path fill-rule="evenodd" clip-rule="evenodd" d="M106.527 25.2914C107.042 21.2834 104.043 18.1354 102.183 16.6407C100.039 19.1189 99.7064 25.614 103.069 28.3486C101.192 30.0156 97.2378 31.5265 93.1884 31.5265H46.8157C46.6146 38.0001 49.0169 42.9139 53.2671 45.8846H53.2681C56.6273 45.8106 59.3683 45.4137 61.4456 44.6939C61.5925 44.6482 61.7514 44.6615 61.8886 44.7308C62.0259 44.8002 62.1308 44.9202 62.1812 45.0655C62.2316 45.2108 62.2235 45.37 62.1586 45.5095C62.0937 45.6489 61.9771 45.7576 61.8335 45.8126C61.557 45.9088 61.2691 45.9983 60.9717 46.0834H60.9707C59.335 46.5506 57.4302 46.9051 55.1672 47.0447C55.1665 47.0447 55.1124 46.9926 55.1117 46.9926C60.9095 49.9667 69.3161 49.9559 78.9544 46.2536C89.7616 42.1016 99.8184 34.1918 106.835 25.1448C106.73 25.1926 106.627 25.2413 106.527 25.2914Z" fill="#37B1D9"/>
<path fill-rule="evenodd" clip-rule="evenodd" d="M43.988 36.6618C44.2941 38.9262 44.9567 41.0462 45.9389 42.9773L46.4996 44.0032C46.8545 44.6054 47.2425 45.1875 47.6617 45.7468C49.6886 45.877 51.557 45.9218 53.2667 45.8841C56.626 45.8101 59.3669 45.4132 61.4443 44.6934C61.5911 44.6477 61.75 44.6609 61.8873 44.7303C62.0246 44.7996 62.1295 44.9196 62.1799 45.065C62.2302 45.2103 62.2221 45.3695 62.1572 45.5089C62.0923 45.6484 61.9757 45.7571 61.8321 45.8121C61.5556 45.9083 61.2677 45.9978 60.9704 46.0829H60.9693C59.3336 46.5501 57.4389 46.8844 55.1759 47.0243C55.0982 47.029 54.9627 47.0301 54.8843 47.0344C53.9943 47.0842 53.0427 47.1148 52.0596 47.1148C50.9849 47.1148 49.8857 47.0943 48.7027 47.0341C52.8096 51.6503 59.2711 54.4289 67.3208 54.4289C81.9053 54.4289 94.594 48.8931 101.959 36.6618H43.988Z" fill="#1B81A5"/>
<path fill-rule="evenodd" clip-rule="evenodd" d="M47.2603 36.6618C48.1321 40.6376 50.2273 43.7586 53.269 45.8841C56.6282 45.8101 59.3691 45.4132 61.4465 44.6934C61.5933 44.6477 61.7522 44.6609 61.8895 44.7303C62.0268 44.7996 62.1317 44.9196 62.1821 45.065C62.2324 45.2103 62.2243 45.3695 62.1594 45.5089C62.0945 45.6484 61.9779 45.7571 61.8343 45.8121C61.5578 45.9083 61.2699 45.9978 60.9726 46.0829H60.9715C59.3358 46.5501 57.4011 46.8844 55.1378 47.0243C60.9352 49.9977 69.3176 49.955 78.9553 46.2531C84.7857 44.0129 90.3972 40.6783 95.4314 36.6618H47.2603Z" fill="#1D91B4"/>
<path fill-rule="evenodd" clip-rule="evenodd" d="M50.5875 23.6642H57.2534V30.3302H50.5875V23.6642ZM51.1428 24.2199H51.6689V29.7748H51.1428V24.2199ZM52.1317 24.2199H52.6789V29.7748H52.132V24.2199H52.1317ZM53.1414 24.2199H53.6887V29.7748H53.1414V24.2199ZM54.1519 24.2199H54.6988V29.7748H54.1519V24.2199ZM55.1619 24.2199H55.7089V29.7748H55.1619V24.2199ZM56.1717 24.2199H56.6981V29.7748H56.1717V24.2199ZM58.2786 15.9731H64.9449V22.6387H58.2783V15.9731H58.2786ZM58.8343 16.5287H59.36V22.0833H58.8343V16.5287ZM59.8232 16.5287H60.3701V22.0833H59.8235V16.5287H59.8232ZM60.8329 16.5287H61.3798V22.0833H60.8329V16.5287ZM61.843 16.5287H62.3899V22.0833H61.843V16.5287ZM62.8531 16.5287H63.4003V22.0833H62.8531V16.5287ZM63.8628 16.5287H64.3896V22.0833H63.8628V16.5287Z" fill="#23A3C2"/>
<path fill-rule="evenodd" clip-rule="evenodd" d="M58.2788 23.6641H64.9451V30.33H58.2785V23.6641H58.2788ZM58.8345 24.2198H59.3602V29.7747H58.8345V24.2198ZM59.8234 24.2198H60.3703V29.7747H59.8237V24.2198H59.8234ZM60.8331 24.2198H61.38V29.7747H60.8331V24.2198ZM61.8432 24.2198H62.3901V29.7747H61.8432V24.2198ZM62.8533 24.2198H63.4005V29.7747H62.8533V24.2198ZM63.863 24.2198H64.3898V29.7747H63.863V24.2198Z" fill="#34BBDE"/>
<path fill-rule="evenodd" clip-rule="evenodd" d="M65.9695 23.6641H72.6355V30.33H65.9695V23.6641ZM66.5248 24.2198H67.0506V29.7747H66.5248V24.2198ZM67.5137 24.2198H68.0607V29.7747H67.5137V24.2198ZM68.5238 24.2198H69.0707V29.7747H68.5238V24.2198ZM69.5339 24.2198H70.0808V29.7747H69.5339V24.2198ZM70.5436 24.2198H71.0912V29.7747H70.5436V24.2198ZM71.5537 24.2198H72.0798V29.7747H71.5537V24.2198Z" fill="#23A3C2"/>
<path fill-rule="evenodd" clip-rule="evenodd" d="M65.9695 15.9731H72.6355V22.6387H65.9695V15.9731ZM66.5248 16.5287H67.0506V22.0833H66.5248V16.5287ZM67.5137 16.5287H68.0607V22.0833H67.5137V16.5287ZM68.5238 16.5287H69.0707V22.0833H68.5238V16.5287ZM69.5339 16.5287H70.0808V22.0833H69.5339V16.5287ZM70.5436 16.5287H71.0912V22.0833H70.5436V16.5287ZM71.5537 16.5287H72.0798V22.0833H71.5537V16.5287ZM73.6607 23.6642H80.3266V30.3302H73.6607V23.6642ZM74.2163 24.2199H74.7421V29.7748H74.2163V24.2199ZM75.2052 24.2199H75.7521V29.7748H75.2052V24.2199ZM76.215 24.2199H76.7619V29.7748H76.215V24.2199ZM77.2251 24.2199H77.7723V29.7748H77.2251V24.2199ZM78.2351 24.2199H78.7824V29.7748H78.2351V24.2199ZM79.2452 24.2199H79.7713V29.7748H79.2452V24.2199Z" fill="#34BBDE"/>
<path fill-rule="evenodd" clip-rule="evenodd" d="M73.6605 15.9731H80.3265V22.6387H73.6605V15.9731ZM74.2162 16.5287H74.7419V22.0833H74.2162V16.5287ZM75.2051 16.5287H75.752V22.0833H75.2051V16.5287ZM76.2148 16.5287H76.7617V22.0833H76.2148V16.5287ZM77.2249 16.5287H77.7722V22.0833H77.2249V16.5287ZM78.235 16.5287H78.7822V22.0833H78.235V16.5287ZM79.2451 16.5287H79.7711V22.0833H79.2451V16.5287Z" fill="#23A3C2"/>
<path fill-rule="evenodd" clip-rule="evenodd" d="M73.6605 8.28143H80.3265V14.948H73.6605V8.28143ZM74.2162 8.83676H74.7419V14.392H74.2162V8.83642V8.83676ZM75.2051 8.83676H75.752V14.392H75.2051V8.83642V8.83676ZM76.2148 8.83676H76.7617V14.392H76.2148V8.83642V8.83676ZM77.2249 8.83676H77.7722V14.392H77.2249V8.83642V8.83676ZM78.235 8.83676H78.7822V14.392H78.235V8.83642V8.83676ZM79.2451 8.83676H79.7711V14.392H79.2451V8.83642V8.83676Z" fill="#34BBDE"/>
<path fill-rule="evenodd" clip-rule="evenodd" d="M81.3516 23.6641H88.0175V30.33H81.3516V23.6641ZM81.9066 24.2198H82.433V29.7747H81.9069V24.2198H81.9066ZM82.8954 24.2198H83.4427V29.7747H82.8958V24.2198H82.8954ZM83.9059 24.2198H84.4531V29.7747H83.9059V24.2198ZM84.9156 24.2198H85.4629V29.7747H84.9156V24.2198ZM85.926 24.2198H86.4729V29.7747H85.926V24.2198ZM86.9358 24.2198H87.4618V29.7747H86.9358V24.2198Z" fill="#23A3C2"/>
<path fill-rule="evenodd" clip-rule="evenodd" d="M64.5263 41.1375C64.7699 41.1342 65.0117 41.1794 65.2377 41.2704C65.4637 41.3614 65.6693 41.4963 65.8427 41.6675C66.0161 41.8386 66.1538 42.0425 66.2477 42.2672C66.3417 42.492 66.39 42.7332 66.39 42.9768C66.3899 43.2205 66.3415 43.4616 66.2475 43.6864C66.1534 43.9111 66.0157 44.115 65.8422 44.286C65.6688 44.4571 65.4631 44.592 65.237 44.6829C65.011 44.7738 64.7692 44.8189 64.5256 44.8155C64.0421 44.8089 63.5808 44.6122 63.2413 44.268C62.9018 43.9237 62.7115 43.4596 62.7116 42.9762C62.7117 42.4927 62.9021 42.0287 63.2417 41.6846C63.5814 41.3405 64.0428 41.1439 64.5263 41.1375Z" fill="#D3ECEC"/>
<path fill-rule="evenodd" clip-rule="evenodd" d="M64.5272 41.6593C64.6953 41.6593 64.8558 41.6909 65.0038 41.7484C64.9017 41.8077 64.8219 41.8989 64.7768 42.0081C64.7318 42.1172 64.7239 42.2382 64.7544 42.3523C64.785 42.4663 64.8522 42.5672 64.9458 42.6392C65.0394 42.7112 65.1541 42.7504 65.2722 42.7507C65.4757 42.7507 65.6523 42.6381 65.7438 42.4712C65.8521 42.7322 65.8736 43.021 65.8052 43.2952C65.7367 43.5693 65.5819 43.8141 65.3636 43.9935C65.1453 44.1729 64.8751 44.2773 64.593 44.2913C64.3108 44.3053 64.0316 44.2282 63.7965 44.0714C63.5615 43.9146 63.3832 43.6863 63.2879 43.4203C63.1926 43.1543 63.1854 42.8648 63.2673 42.5944C63.3492 42.324 63.5159 42.0871 63.7427 41.9187C63.9696 41.7503 64.2446 41.6593 64.5272 41.6593ZM32 37.3266H117.545C115.683 36.8544 111.652 36.216 112.317 33.7747C108.929 37.6939 100.762 36.5244 98.7001 34.592C96.4048 37.9213 83.0413 36.6556 82.1093 34.0619C79.2314 37.4393 70.3142 37.4393 67.4363 34.0619C66.5036 36.6556 53.1404 37.9213 50.8448 34.5917C48.7836 36.5244 40.6161 37.6939 37.229 33.775C37.8937 36.216 33.8631 36.8544 32 37.327" fill="#364548"/>
<path fill-rule="evenodd" clip-rule="evenodd" d="M69.4162 54.3894C64.862 52.2283 62.3625 49.2902 60.9716 46.0833C59.2798 46.566 57.2465 46.8748 54.8836 47.0073C53.9936 47.0571 53.0571 47.0826 52.075 47.0826C50.9421 47.0826 49.7484 47.049 48.4951 46.9828C52.6717 51.157 57.8095 54.3705 67.3231 54.429C68.0254 54.429 68.7223 54.4156 69.4162 54.3894Z" fill="#BDD9D7"/>
<path fill-rule="evenodd" clip-rule="evenodd" d="M62.6616 49.0427C62.0316 48.1873 61.4205 47.1123 60.9711 46.0827C59.2792 46.5661 57.2453 46.8749 54.882 47.0077C56.5053 47.8886 58.8265 48.705 62.662 49.0427" fill="#D3ECEC"/>
</svg>
