<svg width="150" height="87" viewBox="0 0 150 87" fill="none" xmlns="http://www.w3.org/2000/svg">
<rect width="150" height="87" rx="8" fill="#101011"/>
<path d="M24 43C24 57.9116 46.9804 70 75.3271 70C103.674 70 126.654 57.9116 126.654 43C126.654 28.0886 103.674 16 75.3271 16C46.9804 16 24 28.0886 24 43Z" fill="url(#paint0_radial_54_236)"/>
<path d="M75.326 67.9953C102.566 67.9953 124.648 56.8046 124.648 43C124.648 29.1955 102.566 18.0046 75.326 18.0046C48.0865 18.0046 26.0039 29.1955 26.0039 42.9999C26.0039 56.8046 48.0865 67.9956 75.326 67.9956" fill="#777BB3"/>
<path d="M51.8892 46.099C54.129 46.099 55.8011 45.686 56.8591 44.8719C57.9057 44.0658 58.6286 42.6696 59.0075 40.722C59.3608 38.9016 59.2262 37.6305 58.6076 36.9445C57.9752 36.2439 56.6077 35.8885 54.5433 35.8885H50.9641L48.9795 46.099H51.8892ZM40.1818 58.6765C40.0997 58.6765 40.0186 58.6583 39.9443 58.6233C39.8699 58.5883 39.8043 58.5373 39.7521 58.4739C39.6998 58.4105 39.6623 58.3363 39.6421 58.2567C39.6219 58.1771 39.6196 58.094 39.6353 58.0133L44.8942 30.9556C44.9189 30.8287 44.9869 30.7143 45.0867 30.6321C45.1864 30.5498 45.3117 30.5048 45.441 30.5048H56.7753C60.3375 30.5048 62.9889 31.4721 64.6554 33.3799C66.3308 35.2978 66.8482 37.9787 66.1931 41.348C65.9265 42.7206 65.468 43.9955 64.8305 45.137C64.1918 46.2795 63.3481 47.3369 62.322 48.28C61.0938 49.4293 59.7037 50.2628 58.194 50.7533C56.7083 51.2373 54.8004 51.4829 52.5229 51.4829H47.9334L46.6228 58.2257C46.5981 58.3526 46.5301 58.4669 46.4304 58.5492C46.3307 58.6314 46.2055 58.6764 46.0762 58.6765H40.1818Z" fill="black"/>
<path d="M51.4227 36.4457H54.5431C57.0344 36.4457 57.9001 36.9924 58.1941 37.3182C58.682 37.8592 58.7741 38.9998 58.4605 40.6166C58.1082 42.4266 57.4551 43.71 56.5191 44.4306C55.5608 45.1684 54.0028 45.5423 51.8889 45.5423H49.6547L51.4227 36.4457ZM56.7749 29.9481H45.4405C45.182 29.9481 44.9315 30.038 44.732 30.2025C44.5325 30.3669 44.3964 30.5956 44.3471 30.8494L39.0885 57.9072C39.0572 58.0684 39.0619 58.2346 39.1023 58.3938C39.1428 58.553 39.2179 58.7013 39.3224 58.828C39.4269 58.9548 39.5581 59.0569 39.7067 59.1269C39.8553 59.197 40.0175 59.2334 40.1818 59.2334H46.076C46.3345 59.2334 46.585 59.1435 46.7845 58.9791C46.9839 58.8147 47.12 58.586 47.1694 58.3323L48.3925 52.0398H52.5229C54.8586 52.0398 56.825 51.7851 58.3668 51.283C59.9522 50.7678 61.4112 49.8943 62.7023 48.6869C63.7702 47.7045 64.6497 46.6018 65.3162 45.409C65.9827 44.2158 66.4616 42.8853 66.7397 41.4544C67.4294 37.9078 66.8691 35.0678 65.0745 33.0138C63.2977 30.9796 60.5052 29.9481 56.7752 29.9481H56.7749ZM48.3037 46.6561H51.8891C54.2653 46.6561 56.0356 46.2086 57.1985 45.3132C58.362 44.4176 59.1465 42.923 59.5542 40.8286C59.944 38.8177 59.7665 37.3986 59.0212 36.5717C58.2749 35.7452 56.7823 35.3316 54.5432 35.3316H50.5047L48.3037 46.656V46.6561ZM56.7752 31.0618C60.185 31.0618 62.6724 31.9566 64.2359 33.7466C65.7991 35.5362 66.2701 38.0346 65.6463 41.242C65.3895 42.5632 64.9553 43.7712 64.344 44.8656C63.7319 45.9607 62.9327 46.9621 61.9451 47.8701C60.7681 48.9715 59.4606 49.7562 58.0218 50.2239C56.5831 50.6926 54.7506 50.926 52.5229 50.926H47.4741L46.076 58.1197H40.1818L45.4405 31.062H56.7751" fill="#101011"/>
<path d="M79.7082 51.4828C79.5419 51.4828 79.3843 51.4086 79.2786 51.2801C79.2263 51.2168 79.1887 51.1427 79.1684 51.0631C79.1482 50.9834 79.1458 50.9003 79.1615 50.8197L81.4878 38.8477C81.7091 37.7091 81.6545 36.8919 81.3343 36.5466C81.1382 36.3355 80.5494 35.9815 78.8082 35.9815H74.5937L71.6689 51.0321C71.6442 51.159 71.5762 51.2734 71.4764 51.3556C71.3767 51.4379 71.2514 51.4828 71.1222 51.4828H65.2743C65.1922 51.4829 65.111 51.4648 65.0367 51.4298C64.9624 51.3948 64.8967 51.3437 64.8444 51.2803C64.7922 51.2169 64.7546 51.1428 64.7344 51.0631C64.7142 50.9835 64.7119 50.9004 64.7276 50.8197L69.9866 23.762C70.0112 23.6351 70.0792 23.5207 70.179 23.4384C70.2787 23.3562 70.404 23.3112 70.5333 23.3112H76.3811C76.4632 23.3112 76.5444 23.3294 76.6187 23.3644C76.6929 23.3995 76.7586 23.4505 76.8108 23.5139C76.8631 23.5772 76.9007 23.6514 76.9209 23.731C76.9411 23.8106 76.9435 23.8937 76.9278 23.9744L75.6588 30.505H80.1926C83.6465 30.505 85.9886 31.1139 87.3527 32.3666C88.7432 33.6446 89.177 35.688 88.6424 38.4409L86.1956 51.0321C86.1709 51.159 86.1029 51.2734 86.0031 51.3556C85.9034 51.4379 85.7781 51.4828 85.6489 51.4828H79.7082Z" fill="black"/>
<path d="M76.3811 22.7543H70.5333C70.2748 22.7543 70.0243 22.8442 69.8248 23.0087C69.6253 23.1731 69.4892 23.4018 69.4399 23.6556L64.1809 50.7133C64.1495 50.8746 64.1542 51.0409 64.1946 51.2001C64.235 51.3594 64.3102 51.5078 64.4147 51.6346C64.5192 51.7614 64.6505 51.8634 64.7991 51.9335C64.9478 52.0036 65.11 52.0399 65.2744 52.0398H71.1222C71.3807 52.0398 71.6312 51.9499 71.8307 51.7854C72.0302 51.621 72.1663 51.3923 72.2156 51.1385L75.0528 36.5384H78.8084C80.5464 36.5384 80.9112 36.9097 80.9259 36.9257C81.0313 37.0389 81.17 37.5643 80.9411 38.7413L78.615 50.7135C78.5836 50.8748 78.5883 51.041 78.6287 51.2003C78.6691 51.3595 78.7443 51.5079 78.8488 51.6346C78.9533 51.7614 79.0846 51.8635 79.2332 51.9335C79.3819 52.0036 79.5441 52.0398 79.7084 52.0398H85.6491C85.9076 52.0398 86.1581 51.9499 86.3576 51.7854C86.5571 51.621 86.6932 51.3923 86.7425 51.1385L89.189 38.5471C89.7632 35.5915 89.2719 33.3743 87.7298 31.9567C86.2578 30.605 83.7924 29.948 80.1926 29.948H76.3342L77.4746 24.0807C77.5059 23.9195 77.5012 23.7533 77.4607 23.594C77.4202 23.4348 77.3451 23.2865 77.2406 23.1597C77.1361 23.033 77.0048 22.9309 76.8562 22.8608C76.7077 22.7907 76.5454 22.7543 76.3811 22.7543ZM76.3811 23.8682L74.9832 31.0619H80.1926C83.4705 31.0619 85.7315 31.6341 86.9761 32.7769C88.2203 33.9205 88.593 35.7732 88.0957 38.3347L85.6489 50.9259H79.7083L82.0346 38.954C82.2993 37.5922 82.202 36.6632 81.7424 36.1679C81.2825 35.6726 80.3044 35.4246 78.8082 35.4246H74.1346L71.1224 50.9259H65.2746L70.5335 23.8682H76.3813" fill="#101011"/>
<path d="M97.8938 46.099C100.134 46.099 101.806 45.686 102.864 44.8719C103.91 44.0662 104.633 42.6698 105.012 40.722C105.366 38.9016 105.231 37.6305 104.612 36.9445C103.98 36.2439 102.612 35.8885 100.548 35.8885H96.9686L94.9841 46.099H97.8938ZM86.1867 58.6765C86.1046 58.6765 86.0234 58.6583 85.9491 58.6233C85.8748 58.5883 85.8092 58.5373 85.7569 58.4739C85.7046 58.4105 85.6671 58.3363 85.6468 58.2567C85.6266 58.1771 85.6243 58.094 85.64 58.0133L90.8989 30.9556C90.9237 30.8287 90.9917 30.7143 91.0915 30.6321C91.1913 30.5499 91.3165 30.5049 91.4458 30.5048H102.78C106.342 30.5048 108.994 31.4721 110.66 33.3799C112.336 35.2976 112.853 37.9785 112.198 41.348C111.931 42.7206 111.473 43.9955 110.835 45.137C110.196 46.2795 109.353 47.3369 108.327 48.28C107.098 49.4293 105.708 50.2628 104.199 50.7533C102.713 51.2373 100.805 51.4829 98.5276 51.4829H93.9378L92.6277 58.2257C92.603 58.3526 92.5349 58.467 92.4351 58.5493C92.3353 58.6315 92.2101 58.6765 92.0808 58.6765H86.1867Z" fill="black"/>
<path d="M97.4293 36.4457H100.549C103.041 36.4457 103.906 36.9924 104.201 37.3182C104.689 37.8592 104.781 38.9998 104.467 40.6164C104.115 42.4264 103.461 43.71 102.525 44.4306C101.567 45.1684 100.009 45.5423 97.8955 45.5423H95.6614L97.4293 36.4457ZM102.781 29.9481H91.4471C91.1886 29.9481 90.9381 30.0381 90.7387 30.2025C90.5392 30.367 90.4032 30.5957 90.3538 30.8494L85.0951 57.9072C85.0637 58.0684 85.0685 58.2346 85.1089 58.3938C85.1494 58.553 85.2245 58.7013 85.329 58.828C85.4335 58.9548 85.5647 59.0569 85.7133 59.1269C85.8618 59.197 86.0241 59.2334 86.1883 59.2334H92.0826C92.3411 59.2334 92.5915 59.1435 92.791 58.9791C92.9905 58.8147 93.1266 58.586 93.176 58.3323L94.3988 52.0398H98.5294C100.865 52.0398 102.831 51.7851 104.373 51.283C105.959 50.7678 107.418 49.8942 108.709 48.6865C109.777 47.7043 110.656 46.6018 111.323 45.409C111.989 44.2158 112.468 42.8853 112.746 41.4544C113.436 37.9076 112.876 35.0676 111.081 33.0137C109.304 30.9796 106.512 29.9481 102.782 29.9481H102.781ZM94.3103 46.6561H97.8955C100.272 46.6561 102.042 46.2086 103.205 45.3132C104.369 44.4176 105.153 42.923 105.561 40.8286C105.951 38.8177 105.773 37.3986 105.028 36.5717C104.281 35.7452 102.789 35.3316 100.55 35.3316H96.5111L94.3103 46.656V46.6561ZM102.782 31.0618C106.191 31.0618 108.679 31.9566 110.242 33.7466C111.806 35.5362 112.276 38.0346 111.653 41.242C111.396 42.5632 110.962 43.7712 110.35 44.8656C109.738 45.9607 108.939 46.9621 107.951 47.8701C106.774 48.9715 105.467 49.7562 104.028 50.2239C102.589 50.6926 100.757 50.926 98.5294 50.926H93.4805L92.0826 58.1197H86.1883L91.4473 31.062H102.782" fill="#101011"/>
<defs>
<radialGradient id="paint0_radial_54_236" cx="0" cy="0" r="1" gradientUnits="userSpaceOnUse" gradientTransform="translate(54.817 25.4924) scale(67.3998)">
<stop stop-color="#AEB2D5"/>
<stop offset="0.3" stop-color="#AEB2D5"/>
<stop offset="0.75" stop-color="#484C89"/>
<stop offset="1" stop-color="#484C89"/>
</radialGradient>
</defs>
</svg>
