<svg width="36" height="24" viewBox="0 0 36 24" fill="none" xmlns="http://www.w3.org/2000/svg">
<path d="M34.3485 3.75519C33.945 2.27706 32.7562 1.11294 31.2469 0.717875C28.5111 0 17.5408 0 17.5408 0C17.5408 0 6.57052 0 3.83464 0.717875C2.32528 1.113 1.13653 2.27706 0.733063 3.75519C0 6.43437 0 12.0243 0 12.0243C0 12.0243 0 17.6141 0.733063 20.2933C1.13653 21.7714 2.32528 22.8871 3.83464 23.2821C6.57052 24 17.5408 24 17.5408 24C17.5408 24 28.511 24 31.2469 23.2821C32.7562 22.8871 33.945 21.7714 34.3485 20.2933C35.0815 17.6141 35.0815 12.0243 35.0815 12.0243C35.0815 12.0243 35.0815 6.43437 34.3485 3.75519ZM13.9529 17.0994V6.94906L23.1219 12.0244L13.9529 17.0994Z" fill="#D9D9D9"/>
</svg>
